solid OpenSCAD_Model
  facet normal -1 0 0
    outer loop
      vertex 38.2 0.799999 0.799999
      vertex 38.2 39.8 30
      vertex 38.2 39.8 0.799999
    endloop
  endfacet
  facet normal -1 -0 0
    outer loop
      vertex 38.2 39.8 30
      vertex 38.2 0.799999 0.799999
      vertex 38.2 0.799999 30
    endloop
  endfacet
  facet normal -0 0 1
    outer loop
      vertex 0.799999 40.6 30
      vertex 38.2 39.8 30
      vertex 38.2 40.6 30
    endloop
  endfacet
  facet normal 0 0 1
    outer loop
      vertex 38.2 39.8 30
      vertex 0.799999 40.6 30
      vertex 0.799999 39.8 30
    endloop
  endfacet
  facet normal -0 0 1
    outer loop
      vertex 0.799999 80.4 30
      vertex 38.2 79.6 30
      vertex 38.2 80.4 30
    endloop
  endfacet
  facet normal 0 0 1
    outer loop
      vertex 38.2 79.6 30
      vertex 0.799999 80.4 30
      vertex 0.799999 79.6 30
    endloop
  endfacet
  facet normal -0 0 1
    outer loop
      vertex 0.799999 120.2 30
      vertex 38.2 119.4 30
      vertex 38.2 120.2 30
    endloop
  endfacet
  facet normal 0 0 1
    outer loop
      vertex 38.2 119.4 30
      vertex 0.799999 120.2 30
      vertex 0.799999 119.4 30
    endloop
  endfacet
  facet normal -0 0 1
    outer loop
      vertex 39 40.6 30
      vertex 76.4 39.8 30
      vertex 76.4 40.6 30
    endloop
  endfacet
  facet normal 0 0 1
    outer loop
      vertex 76.4 39.8 30
      vertex 39 40.6 30
      vertex 39 39.8 30
    endloop
  endfacet
  facet normal -0 0 1
    outer loop
      vertex 39 80.4 30
      vertex 76.4 79.6 30
      vertex 76.4 80.4 30
    endloop
  endfacet
  facet normal 0 0 1
    outer loop
      vertex 76.4 79.6 30
      vertex 39 80.4 30
      vertex 39 79.6 30
    endloop
  endfacet
  facet normal -0 0 1
    outer loop
      vertex 39 120.2 30
      vertex 76.4 119.4 30
      vertex 76.4 120.2 30
    endloop
  endfacet
  facet normal 0 0 1
    outer loop
      vertex 76.4 119.4 30
      vertex 39 120.2 30
      vertex 39 119.4 30
    endloop
  endfacet
  facet normal -0 0 1
    outer loop
      vertex 77.2 40.6 30
      vertex 114.6 39.8 30
      vertex 114.6 40.6 30
    endloop
  endfacet
  facet normal 0 0 1
    outer loop
      vertex 114.6 39.8 30
      vertex 77.2 40.6 30
      vertex 77.2 39.8 30
    endloop
  endfacet
  facet normal -0 0 1
    outer loop
      vertex 77.2 80.4 30
      vertex 114.6 79.6 30
      vertex 114.6 80.4 30
    endloop
  endfacet
  facet normal 0 0 1
    outer loop
      vertex 114.6 79.6 30
      vertex 77.2 80.4 30
      vertex 77.2 79.6 30
    endloop
  endfacet
  facet normal -0 0 1
    outer loop
      vertex 77.2 120.2 30
      vertex 114.6 119.4 30
      vertex 114.6 120.2 30
    endloop
  endfacet
  facet normal 0 0 1
    outer loop
      vertex 114.6 119.4 30
      vertex 77.2 120.2 30
      vertex 77.2 119.4 30
    endloop
  endfacet
  facet normal -0 0 1
    outer loop
      vertex 115.4 120.2 30
      vertex 191 119.4 30
      vertex 191 120.2 30
    endloop
  endfacet
  facet normal 0 0 1
    outer loop
      vertex 191 119.4 30
      vertex 115.4 120.2 30
      vertex 115.4 119.4 30
    endloop
  endfacet
  facet normal -0 0 1
    outer loop
      vertex 115.4 40.6 30
      vertex 229.2 39.8 30
      vertex 229.2 40.6 30
    endloop
  endfacet
  facet normal 0 0 1
    outer loop
      vertex 229.2 39.8 30
      vertex 115.4 40.6 30
      vertex 115.4 39.8 30
    endloop
  endfacet
  facet normal -0 0 1
    outer loop
      vertex 191.8 80.4 30
      vertex 229.2 79.6 30
      vertex 229.2 80.4 30
    endloop
  endfacet
  facet normal 0 0 1
    outer loop
      vertex 191.8 159.2 30
      vertex 191 120.2 30
      vertex 191.8 80.4 30
    endloop
  endfacet
  facet normal -0 0 1
    outer loop
      vertex 191 119.4 30
      vertex 191.8 80.4 30
      vertex 191 120.2 30
    endloop
  endfacet
  facet normal 0 0 1
    outer loop
      vertex 191 80.4 30
      vertex 191.8 80.4 30
      vertex 191 119.4 30
    endloop
  endfacet
  facet normal -0 0 1
    outer loop
      vertex 191 80.4 30
      vertex 229.2 79.6 30
      vertex 191.8 80.4 30
    endloop
  endfacet
  facet normal 0 0 1
    outer loop
      vertex 115.4 79.6 30
      vertex 191 80.4 30
      vertex 115.4 80.4 30
    endloop
  endfacet
  facet normal 0 0 1
    outer loop
      vertex 191 80.4 30
      vertex 115.4 79.6 30
      vertex 229.2 79.6 30
    endloop
  endfacet
  facet normal 0 0 1
    outer loop
      vertex 229.2 80.4 30
      vertex 230 160 30
      vertex 229.2 159.2 30
    endloop
  endfacet
  facet normal 0 0 1
    outer loop
      vertex 230 160 30
      vertex 191.8 159.2 30
      vertex 229.2 159.2 30
    endloop
  endfacet
  facet normal 0 0 1
    outer loop
      vertex 191 120.2 30
      vertex 191.8 159.2 30
      vertex 191 159.2 30
    endloop
  endfacet
  facet normal 0 0 1
    outer loop
      vertex 230 160 30
      vertex 191 159.2 30
      vertex 191.8 159.2 30
    endloop
  endfacet
  facet normal 0 0 1
    outer loop
      vertex 230 160 30
      vertex 115.4 159.2 30
      vertex 191 159.2 30
    endloop
  endfacet
  facet normal 0 0 1
    outer loop
      vertex 114.6 120.2 30
      vertex 115.4 120.2 30
      vertex 115.4 159.2 30
    endloop
  endfacet
  facet normal 0 0 1
    outer loop
      vertex 115.4 120.2 30
      vertex 114.6 120.2 30
      vertex 115.4 119.4 30
    endloop
  endfacet
  facet normal 0 0 1
    outer loop
      vertex 115.4 119.4 30
      vertex 114.6 119.4 30
      vertex 115.4 80.4 30
    endloop
  endfacet
  facet normal 0 0 1
    outer loop
      vertex 114.6 80.4 30
      vertex 115.4 80.4 30
      vertex 114.6 119.4 30
    endloop
  endfacet
  facet normal 0 0 1
    outer loop
      vertex 114.6 79.6 30
      vertex 115.4 79.6 30
      vertex 114.6 80.4 30
    endloop
  endfacet
  facet normal 0 0 1
    outer loop
      vertex 115.4 79.6 30
      vertex 114.6 79.6 30
      vertex 115.4 40.6 30
    endloop
  endfacet
  facet normal 0 0 1
    outer loop
      vertex 114.6 120.2 30
      vertex 115.4 159.2 30
      vertex 114.6 159.2 30
    endloop
  endfacet
  facet normal 0 0 1
    outer loop
      vertex 230 160 30
      vertex 114.6 159.2 30
      vertex 115.4 159.2 30
    endloop
  endfacet
  facet normal 0 0 1
    outer loop
      vertex 230 160 30
      vertex 77.2 159.2 30
      vertex 114.6 159.2 30
    endloop
  endfacet
  facet normal 0 0 1
    outer loop
      vertex 76.4 120.2 30
      vertex 77.2 120.2 30
      vertex 77.2 159.2 30
    endloop
  endfacet
  facet normal 0 0 1
    outer loop
      vertex 77.2 120.2 30
      vertex 76.4 120.2 30
      vertex 77.2 119.4 30
    endloop
  endfacet
  facet normal 0 0 1
    outer loop
      vertex 77.2 119.4 30
      vertex 76.4 119.4 30
      vertex 77.2 80.4 30
    endloop
  endfacet
  facet normal 0 0 1
    outer loop
      vertex 76.4 80.4 30
      vertex 77.2 80.4 30
      vertex 76.4 119.4 30
    endloop
  endfacet
  facet normal 0 0 1
    outer loop
      vertex 76.4 79.6 30
      vertex 77.2 79.6 30
      vertex 76.4 80.4 30
    endloop
  endfacet
  facet normal 0 0 1
    outer loop
      vertex 77.2 79.6 30
      vertex 76.4 79.6 30
      vertex 77.2 40.6 30
    endloop
  endfacet
  facet normal 0 0 1
    outer loop
      vertex 76.4 120.2 30
      vertex 77.2 159.2 30
      vertex 76.4 159.2 30
    endloop
  endfacet
  facet normal 0 0 1
    outer loop
      vertex 230 160 30
      vertex 76.4 159.2 30
      vertex 77.2 159.2 30
    endloop
  endfacet
  facet normal -0 0 1
    outer loop
      vertex 0 160 30
      vertex 76.4 159.2 30
      vertex 230 160 30
    endloop
  endfacet
  facet normal 0 0 1
    outer loop
      vertex 38.2 120.2 30
      vertex 39 120.2 30
      vertex 39 159.2 30
    endloop
  endfacet
  facet normal 0 0 1
    outer loop
      vertex 39 120.2 30
      vertex 38.2 120.2 30
      vertex 39 119.4 30
    endloop
  endfacet
  facet normal 0 0 1
    outer loop
      vertex 39 119.4 30
      vertex 38.2 119.4 30
      vertex 39 80.4 30
    endloop
  endfacet
  facet normal 0 0 1
    outer loop
      vertex 38.2 80.4 30
      vertex 39 80.4 30
      vertex 38.2 119.4 30
    endloop
  endfacet
  facet normal 0 0 1
    outer loop
      vertex 38.2 79.6 30
      vertex 39 79.6 30
      vertex 38.2 80.4 30
    endloop
  endfacet
  facet normal 0 0 1
    outer loop
      vertex 39 79.6 30
      vertex 38.2 79.6 30
      vertex 39 40.6 30
    endloop
  endfacet
  facet normal 0 0 1
    outer loop
      vertex 38.2 120.2 30
      vertex 39 159.2 30
      vertex 38.2 159.2 30
    endloop
  endfacet
  facet normal 0 0 1
    outer loop
      vertex 76.4 159.2 30
      vertex 0 160 30
      vertex 39 159.2 30
    endloop
  endfacet
  facet normal 0 0 1
    outer loop
      vertex 39 159.2 30
      vertex 0 160 30
      vertex 38.2 159.2 30
    endloop
  endfacet
  facet normal 0 0 1
    outer loop
      vertex 0 160 30
      vertex 0.799999 120.2 30
      vertex 0.799999 159.2 30
    endloop
  endfacet
  facet normal 0 0 1
    outer loop
      vertex 0.799999 120.2 30
      vertex 0 160 30
      vertex 0.799999 119.4 30
    endloop
  endfacet
  facet normal 0 0 1
    outer loop
      vertex 0.799999 119.4 30
      vertex 0 160 30
      vertex 0.799999 80.4 30
    endloop
  endfacet
  facet normal 0 0 1
    outer loop
      vertex 0.799999 80.4 30
      vertex 0 160 30
      vertex 0.799999 79.6 30
    endloop
  endfacet
  facet normal 0 0 1
    outer loop
      vertex 0.799999 79.6 30
      vertex 0 160 30
      vertex 0.799999 40.6 30
    endloop
  endfacet
  facet normal 0 0 1
    outer loop
      vertex 0 0 30
      vertex 0.799999 40.6 30
      vertex 0 160 30
    endloop
  endfacet
  facet normal 0 0 1
    outer loop
      vertex 0.799999 40.6 30
      vertex 0 0 30
      vertex 0.799999 39.8 30
    endloop
  endfacet
  facet normal 0 0 1
    outer loop
      vertex 38.2 159.2 30
      vertex 0 160 30
      vertex 0.799999 159.2 30
    endloop
  endfacet
  facet normal 0 0 1
    outer loop
      vertex 230 160 30
      vertex 229.2 80.4 30
      vertex 230 0 30
    endloop
  endfacet
  facet normal -0 0 1
    outer loop
      vertex 229.2 79.6 30
      vertex 230 0 30
      vertex 229.2 80.4 30
    endloop
  endfacet
  facet normal -0 0 1
    outer loop
      vertex 229.2 40.6 30
      vertex 230 0 30
      vertex 229.2 79.6 30
    endloop
  endfacet
  facet normal -0 0 1
    outer loop
      vertex 229.2 39.8 30
      vertex 230 0 30
      vertex 229.2 40.6 30
    endloop
  endfacet
  facet normal -0 0 1
    outer loop
      vertex 229.2 0.799999 30
      vertex 230 0 30
      vertex 229.2 39.8 30
    endloop
  endfacet
  facet normal -0 0 1
    outer loop
      vertex 115.4 0.799999 30
      vertex 230 0 30
      vertex 229.2 0.799999 30
    endloop
  endfacet
  facet normal 0 0 1
    outer loop
      vertex 115.4 119.4 30
      vertex 114.6 120.2 30
      vertex 114.6 119.4 30
    endloop
  endfacet
  facet normal 0 0 1
    outer loop
      vertex 115.4 80.4 30
      vertex 114.6 80.4 30
      vertex 115.4 79.6 30
    endloop
  endfacet
  facet normal 0 0 1
    outer loop
      vertex 114.6 40.6 30
      vertex 115.4 40.6 30
      vertex 114.6 79.6 30
    endloop
  endfacet
  facet normal 0 0 1
    outer loop
      vertex 115.4 40.6 30
      vertex 114.6 40.6 30
      vertex 115.4 39.8 30
    endloop
  endfacet
  facet normal 0 0 1
    outer loop
      vertex 114.6 39.8 30
      vertex 115.4 39.8 30
      vertex 114.6 40.6 30
    endloop
  endfacet
  facet normal 0 0 1
    outer loop
      vertex 115.4 39.8 30
      vertex 114.6 39.8 30
      vertex 115.4 0.799999 30
    endloop
  endfacet
  facet normal 0 0 1
    outer loop
      vertex 114.6 0.799999 30
      vertex 115.4 0.799999 30
      vertex 114.6 39.8 30
    endloop
  endfacet
  facet normal -0 0 1
    outer loop
      vertex 114.6 0.799999 30
      vertex 230 0 30
      vertex 115.4 0.799999 30
    endloop
  endfacet
  facet normal -0 0 1
    outer loop
      vertex 77.2 0.799999 30
      vertex 230 0 30
      vertex 114.6 0.799999 30
    endloop
  endfacet
  facet normal 0 0 1
    outer loop
      vertex 77.2 119.4 30
      vertex 76.4 120.2 30
      vertex 76.4 119.4 30
    endloop
  endfacet
  facet normal 0 0 1
    outer loop
      vertex 77.2 80.4 30
      vertex 76.4 80.4 30
      vertex 77.2 79.6 30
    endloop
  endfacet
  facet normal 0 0 1
    outer loop
      vertex 76.4 40.6 30
      vertex 77.2 40.6 30
      vertex 76.4 79.6 30
    endloop
  endfacet
  facet normal 0 0 1
    outer loop
      vertex 77.2 40.6 30
      vertex 76.4 40.6 30
      vertex 77.2 39.8 30
    endloop
  endfacet
  facet normal 0 0 1
    outer loop
      vertex 76.4 39.8 30
      vertex 77.2 39.8 30
      vertex 76.4 40.6 30
    endloop
  endfacet
  facet normal 0 0 1
    outer loop
      vertex 77.2 39.8 30
      vertex 76.4 39.8 30
      vertex 77.2 0.799999 30
    endloop
  endfacet
  facet normal 0 0 1
    outer loop
      vertex 76.4 0.799999 30
      vertex 77.2 0.799999 30
      vertex 76.4 39.8 30
    endloop
  endfacet
  facet normal -0 0 1
    outer loop
      vertex 76.4 0.799999 30
      vertex 230 0 30
      vertex 77.2 0.799999 30
    endloop
  endfacet
  facet normal 0 0 1
    outer loop
      vertex 0 0 30
      vertex 76.4 0.799999 30
      vertex 39 0.799999 30
    endloop
  endfacet
  facet normal 0 0 1
    outer loop
      vertex 39 119.4 30
      vertex 38.2 120.2 30
      vertex 38.2 119.4 30
    endloop
  endfacet
  facet normal 0 0 1
    outer loop
      vertex 39 80.4 30
      vertex 38.2 80.4 30
      vertex 39 79.6 30
    endloop
  endfacet
  facet normal 0 0 1
    outer loop
      vertex 38.2 40.6 30
      vertex 39 40.6 30
      vertex 38.2 79.6 30
    endloop
  endfacet
  facet normal 0 0 1
    outer loop
      vertex 39 40.6 30
      vertex 38.2 40.6 30
      vertex 39 39.8 30
    endloop
  endfacet
  facet normal 0 0 1
    outer loop
      vertex 38.2 39.8 30
      vertex 39 39.8 30
      vertex 38.2 40.6 30
    endloop
  endfacet
  facet normal 0 0 1
    outer loop
      vertex 39 39.8 30
      vertex 38.2 39.8 30
      vertex 39 0.799999 30
    endloop
  endfacet
  facet normal 0 0 1
    outer loop
      vertex 38.2 0.799999 30
      vertex 39 0.799999 30
      vertex 38.2 39.8 30
    endloop
  endfacet
  facet normal 0 0 1
    outer loop
      vertex 0 0 30
      vertex 39 0.799999 30
      vertex 38.2 0.799999 30
    endloop
  endfacet
  facet normal 0 0 1
    outer loop
      vertex 0 0 30
      vertex 38.2 0.799999 30
      vertex 0.799999 0.799999 30
    endloop
  endfacet
  facet normal 0 0 1
    outer loop
      vertex 76.4 0.799999 30
      vertex 0 0 30
      vertex 230 0 30
    endloop
  endfacet
  facet normal 0 0 1
    outer loop
      vertex 0.799999 39.8 30
      vertex 0 0 30
      vertex 0.799999 0.799999 30
    endloop
  endfacet
  facet normal 1 -0 0
    outer loop
      vertex 39 0.799999 30
      vertex 39 39.8 0.799999
      vertex 39 39.8 30
    endloop
  endfacet
  facet normal 1 0 0
    outer loop
      vertex 39 39.8 0.799999
      vertex 39 0.799999 30
      vertex 39 0.799999 0.799999
    endloop
  endfacet
  facet normal 0 0 -1
    outer loop
      vertex 0 0 0
      vertex 230 160 0
      vertex 230 0 0
    endloop
  endfacet
  facet normal -0 0 -1
    outer loop
      vertex 230 160 0
      vertex 0 0 0
      vertex 0 160 0
    endloop
  endfacet
  facet normal 0 -1 0
    outer loop
      vertex 0 0 0
      vertex 230 0 30
      vertex 0 0 30
    endloop
  endfacet
  facet normal 0 -1 -0
    outer loop
      vertex 230 0 30
      vertex 0 0 0
      vertex 230 0 0
    endloop
  endfacet
  facet normal -1 0 0
    outer loop
      vertex 0 0 0
      vertex 0 160 30
      vertex 0 160 0
    endloop
  endfacet
  facet normal -1 -0 0
    outer loop
      vertex 0 160 30
      vertex 0 0 0
      vertex 0 0 30
    endloop
  endfacet
  facet normal 0 1 -0
    outer loop
      vertex 229.2 0.799999 0.799999
      vertex 115.4 0.799999 30
      vertex 229.2 0.799999 30
    endloop
  endfacet
  facet normal 0 1 0
    outer loop
      vertex 115.4 0.799999 30
      vertex 229.2 0.799999 0.799999
      vertex 115.4 0.799999 0.799999
    endloop
  endfacet
  facet normal 0 1 -0
    outer loop
      vertex 114.6 0.799999 0.799999
      vertex 77.2 0.799999 30
      vertex 114.6 0.799999 30
    endloop
  endfacet
  facet normal 0 1 0
    outer loop
      vertex 77.2 0.799999 30
      vertex 114.6 0.799999 0.799999
      vertex 77.2 0.799999 0.799999
    endloop
  endfacet
  facet normal 0 1 -0
    outer loop
      vertex 76.4 0.799999 0.799999
      vertex 39 0.799999 30
      vertex 76.4 0.799999 30
    endloop
  endfacet
  facet normal 0 1 0
    outer loop
      vertex 39 0.799999 30
      vertex 76.4 0.799999 0.799999
      vertex 39 0.799999 0.799999
    endloop
  endfacet
  facet normal 0 1 -0
    outer loop
      vertex 38.2 0.799999 0.799999
      vertex 0.799999 0.799999 30
      vertex 38.2 0.799999 30
    endloop
  endfacet
  facet normal 0 1 0
    outer loop
      vertex 0.799999 0.799999 30
      vertex 38.2 0.799999 0.799999
      vertex 0.799999 0.799999 0.799999
    endloop
  endfacet
  facet normal -1 0 0
    outer loop
      vertex 76.4 0.799999 0.799999
      vertex 76.4 39.8 30
      vertex 76.4 39.8 0.799999
    endloop
  endfacet
  facet normal -1 -0 0
    outer loop
      vertex 76.4 39.8 30
      vertex 76.4 0.799999 0.799999
      vertex 76.4 0.799999 30
    endloop
  endfacet
  facet normal 1 -0 0
    outer loop
      vertex 77.2 0.799999 30
      vertex 77.2 39.8 0.799999
      vertex 77.2 39.8 30
    endloop
  endfacet
  facet normal 1 0 0
    outer loop
      vertex 77.2 39.8 0.799999
      vertex 77.2 0.799999 30
      vertex 77.2 0.799999 0.799999
    endloop
  endfacet
  facet normal -1 0 0
    outer loop
      vertex 114.6 0.799999 0.799999
      vertex 114.6 39.8 30
      vertex 114.6 39.8 0.799999
    endloop
  endfacet
  facet normal -1 -0 0
    outer loop
      vertex 114.6 39.8 30
      vertex 114.6 0.799999 0.799999
      vertex 114.6 0.799999 30
    endloop
  endfacet
  facet normal 1 -0 0
    outer loop
      vertex 115.4 0.799999 30
      vertex 115.4 39.8 0.799999
      vertex 115.4 39.8 30
    endloop
  endfacet
  facet normal 1 0 0
    outer loop
      vertex 115.4 39.8 0.799999
      vertex 115.4 0.799999 30
      vertex 115.4 0.799999 0.799999
    endloop
  endfacet
  facet normal 1 -0 0
    outer loop
      vertex 115.4 40.6 30
      vertex 115.4 79.6 0.799999
      vertex 115.4 79.6 30
    endloop
  endfacet
  facet normal 1 0 0
    outer loop
      vertex 115.4 79.6 0.799999
      vertex 115.4 40.6 30
      vertex 115.4 40.6 0.799999
    endloop
  endfacet
  facet normal -1 0 0
    outer loop
      vertex 229.2 80.4 0.799999
      vertex 229.2 159.2 30
      vertex 229.2 159.2 0.799999
    endloop
  endfacet
  facet normal -1 -0 0
    outer loop
      vertex 229.2 159.2 30
      vertex 229.2 80.4 0.799999
      vertex 229.2 80.4 30
    endloop
  endfacet
  facet normal -1 0 0
    outer loop
      vertex 229.2 40.6 0.799999
      vertex 229.2 79.6 30
      vertex 229.2 79.6 0.799999
    endloop
  endfacet
  facet normal -1 -0 0
    outer loop
      vertex 229.2 79.6 30
      vertex 229.2 40.6 0.799999
      vertex 229.2 40.6 30
    endloop
  endfacet
  facet normal -1 0 0
    outer loop
      vertex 229.2 0.799999 0.799999
      vertex 229.2 39.8 30
      vertex 229.2 39.8 0.799999
    endloop
  endfacet
  facet normal -1 -0 0
    outer loop
      vertex 229.2 39.8 30
      vertex 229.2 0.799999 0.799999
      vertex 229.2 0.799999 30
    endloop
  endfacet
  facet normal 1 -0 0
    outer loop
      vertex 230 0 30
      vertex 230 160 0
      vertex 230 160 30
    endloop
  endfacet
  facet normal 1 0 0
    outer loop
      vertex 230 160 0
      vertex 230 0 30
      vertex 230 0 0
    endloop
  endfacet
  facet normal -1 0 0
    outer loop
      vertex 38.2 40.6 0.799999
      vertex 38.2 79.6 30
      vertex 38.2 79.6 0.799999
    endloop
  endfacet
  facet normal -1 -0 0
    outer loop
      vertex 38.2 79.6 30
      vertex 38.2 40.6 0.799999
      vertex 38.2 40.6 30
    endloop
  endfacet
  facet normal 1 -0 0
    outer loop
      vertex 39 40.6 30
      vertex 39 79.6 0.799999
      vertex 39 79.6 30
    endloop
  endfacet
  facet normal 1 0 0
    outer loop
      vertex 39 79.6 0.799999
      vertex 39 40.6 30
      vertex 39 40.6 0.799999
    endloop
  endfacet
  facet normal 0 -1 0
    outer loop
      vertex 77.2 39.8 0.799999
      vertex 114.6 39.8 30
      vertex 77.2 39.8 30
    endloop
  endfacet
  facet normal 0 -1 -0
    outer loop
      vertex 114.6 39.8 30
      vertex 77.2 39.8 0.799999
      vertex 114.6 39.8 0.799999
    endloop
  endfacet
  facet normal 0 -1 0
    outer loop
      vertex 0.799999 39.8 0.799999
      vertex 38.2 39.8 30
      vertex 0.799999 39.8 30
    endloop
  endfacet
  facet normal 0 -1 -0
    outer loop
      vertex 38.2 39.8 30
      vertex 0.799999 39.8 0.799999
      vertex 38.2 39.8 0.799999
    endloop
  endfacet
  facet normal 0 -1 0
    outer loop
      vertex 39 39.8 0.799999
      vertex 76.4 39.8 30
      vertex 39 39.8 30
    endloop
  endfacet
  facet normal 0 -1 -0
    outer loop
      vertex 76.4 39.8 30
      vertex 39 39.8 0.799999
      vertex 76.4 39.8 0.799999
    endloop
  endfacet
  facet normal 0 1 -0
    outer loop
      vertex 38.2 40.6 0.799999
      vertex 0.799999 40.6 30
      vertex 38.2 40.6 30
    endloop
  endfacet
  facet normal 0 1 0
    outer loop
      vertex 0.799999 40.6 30
      vertex 38.2 40.6 0.799999
      vertex 0.799999 40.6 0.799999
    endloop
  endfacet
  facet normal -1 0 0
    outer loop
      vertex 76.4 40.6 0.799999
      vertex 76.4 79.6 30
      vertex 76.4 79.6 0.799999
    endloop
  endfacet
  facet normal -1 -0 0
    outer loop
      vertex 76.4 79.6 30
      vertex 76.4 40.6 0.799999
      vertex 76.4 40.6 30
    endloop
  endfacet
  facet normal 1 -0 0
    outer loop
      vertex 77.2 40.6 30
      vertex 77.2 79.6 0.799999
      vertex 77.2 79.6 30
    endloop
  endfacet
  facet normal 1 0 0
    outer loop
      vertex 77.2 79.6 0.799999
      vertex 77.2 40.6 30
      vertex 77.2 40.6 0.799999
    endloop
  endfacet
  facet normal 0 1 -0
    outer loop
      vertex 76.4 40.6 0.799999
      vertex 39 40.6 30
      vertex 76.4 40.6 30
    endloop
  endfacet
  facet normal 0 1 0
    outer loop
      vertex 39 40.6 30
      vertex 76.4 40.6 0.799999
      vertex 39 40.6 0.799999
    endloop
  endfacet
  facet normal -1 0 0
    outer loop
      vertex 114.6 40.6 0.799999
      vertex 114.6 79.6 30
      vertex 114.6 79.6 0.799999
    endloop
  endfacet
  facet normal -1 -0 0
    outer loop
      vertex 114.6 79.6 30
      vertex 114.6 40.6 0.799999
      vertex 114.6 40.6 30
    endloop
  endfacet
  facet normal 0 1 -0
    outer loop
      vertex 114.6 40.6 0.799999
      vertex 77.2 40.6 30
      vertex 114.6 40.6 30
    endloop
  endfacet
  facet normal 0 1 0
    outer loop
      vertex 77.2 40.6 30
      vertex 114.6 40.6 0.799999
      vertex 77.2 40.6 0.799999
    endloop
  endfacet
  facet normal 0 1 -0
    outer loop
      vertex 229.2 40.6 0.799999
      vertex 115.4 40.6 30
      vertex 229.2 40.6 30
    endloop
  endfacet
  facet normal 0 1 0
    outer loop
      vertex 115.4 40.6 30
      vertex 229.2 40.6 0.799999
      vertex 115.4 40.6 0.799999
    endloop
  endfacet
  facet normal 0 -1 0
    outer loop
      vertex 115.4 39.8 0.799999
      vertex 229.2 39.8 30
      vertex 115.4 39.8 30
    endloop
  endfacet
  facet normal 0 -1 -0
    outer loop
      vertex 229.2 39.8 30
      vertex 115.4 39.8 0.799999
      vertex 229.2 39.8 0.799999
    endloop
  endfacet
  facet normal -1 0 0
    outer loop
      vertex 38.2 80.4 0.799999
      vertex 38.2 119.4 30
      vertex 38.2 119.4 0.799999
    endloop
  endfacet
  facet normal -1 -0 0
    outer loop
      vertex 38.2 119.4 30
      vertex 38.2 80.4 0.799999
      vertex 38.2 80.4 30
    endloop
  endfacet
  facet normal -1 0 0
    outer loop
      vertex 38.2 120.2 0.799999
      vertex 38.2 159.2 30
      vertex 38.2 159.2 0.799999
    endloop
  endfacet
  facet normal -1 -0 0
    outer loop
      vertex 38.2 159.2 30
      vertex 38.2 120.2 0.799999
      vertex 38.2 120.2 30
    endloop
  endfacet
  facet normal 1 -0 0
    outer loop
      vertex 39 80.4 30
      vertex 39 119.4 0.799999
      vertex 39 119.4 30
    endloop
  endfacet
  facet normal 1 0 0
    outer loop
      vertex 39 119.4 0.799999
      vertex 39 80.4 30
      vertex 39 80.4 0.799999
    endloop
  endfacet
  facet normal 1 -0 0
    outer loop
      vertex 39 120.2 30
      vertex 39 159.2 0.799999
      vertex 39 159.2 30
    endloop
  endfacet
  facet normal 1 0 0
    outer loop
      vertex 39 159.2 0.799999
      vertex 39 120.2 30
      vertex 39 120.2 0.799999
    endloop
  endfacet
  facet normal 0 -1 0
    outer loop
      vertex 115.4 79.6 0.799999
      vertex 229.2 79.6 30
      vertex 115.4 79.6 30
    endloop
  endfacet
  facet normal 0 -1 -0
    outer loop
      vertex 229.2 79.6 30
      vertex 115.4 79.6 0.799999
      vertex 229.2 79.6 0.799999
    endloop
  endfacet
  facet normal 0 -1 0
    outer loop
      vertex 0.799999 79.6 0.799999
      vertex 38.2 79.6 30
      vertex 0.799999 79.6 30
    endloop
  endfacet
  facet normal 0 -1 -0
    outer loop
      vertex 38.2 79.6 30
      vertex 0.799999 79.6 0.799999
      vertex 38.2 79.6 0.799999
    endloop
  endfacet
  facet normal 0 -1 0
    outer loop
      vertex 39 79.6 0.799999
      vertex 76.4 79.6 30
      vertex 39 79.6 30
    endloop
  endfacet
  facet normal 0 -1 -0
    outer loop
      vertex 76.4 79.6 30
      vertex 39 79.6 0.799999
      vertex 76.4 79.6 0.799999
    endloop
  endfacet
  facet normal 0 -1 0
    outer loop
      vertex 77.2 79.6 0.799999
      vertex 114.6 79.6 30
      vertex 77.2 79.6 30
    endloop
  endfacet
  facet normal 0 -1 -0
    outer loop
      vertex 114.6 79.6 30
      vertex 77.2 79.6 0.799999
      vertex 114.6 79.6 0.799999
    endloop
  endfacet
  facet normal 0 1 -0
    outer loop
      vertex 38.2 80.4 0.799999
      vertex 0.799999 80.4 30
      vertex 38.2 80.4 30
    endloop
  endfacet
  facet normal 0 1 0
    outer loop
      vertex 0.799999 80.4 30
      vertex 38.2 80.4 0.799999
      vertex 0.799999 80.4 0.799999
    endloop
  endfacet
  facet normal -1 0 0
    outer loop
      vertex 76.4 80.4 0.799999
      vertex 76.4 119.4 30
      vertex 76.4 119.4 0.799999
    endloop
  endfacet
  facet normal -1 -0 0
    outer loop
      vertex 76.4 119.4 30
      vertex 76.4 80.4 0.799999
      vertex 76.4 80.4 30
    endloop
  endfacet
  facet normal 1 -0 0
    outer loop
      vertex 77.2 80.4 30
      vertex 77.2 119.4 0.799999
      vertex 77.2 119.4 30
    endloop
  endfacet
  facet normal 1 0 0
    outer loop
      vertex 77.2 119.4 0.799999
      vertex 77.2 80.4 30
      vertex 77.2 80.4 0.799999
    endloop
  endfacet
  facet normal 0 1 -0
    outer loop
      vertex 76.4 80.4 0.799999
      vertex 39 80.4 30
      vertex 76.4 80.4 30
    endloop
  endfacet
  facet normal 0 1 0
    outer loop
      vertex 39 80.4 30
      vertex 76.4 80.4 0.799999
      vertex 39 80.4 0.799999
    endloop
  endfacet
  facet normal -1 0 0
    outer loop
      vertex 114.6 80.4 0.799999
      vertex 114.6 119.4 30
      vertex 114.6 119.4 0.799999
    endloop
  endfacet
  facet normal -1 -0 0
    outer loop
      vertex 114.6 119.4 30
      vertex 114.6 80.4 0.799999
      vertex 114.6 80.4 30
    endloop
  endfacet
  facet normal 1 -0 0
    outer loop
      vertex 115.4 80.4 30
      vertex 115.4 119.4 0.799999
      vertex 115.4 119.4 30
    endloop
  endfacet
  facet normal 1 0 0
    outer loop
      vertex 115.4 119.4 0.799999
      vertex 115.4 80.4 30
      vertex 115.4 80.4 0.799999
    endloop
  endfacet
  facet normal 0 1 -0
    outer loop
      vertex 114.6 80.4 0.799999
      vertex 77.2 80.4 30
      vertex 114.6 80.4 30
    endloop
  endfacet
  facet normal 0 1 0
    outer loop
      vertex 77.2 80.4 30
      vertex 114.6 80.4 0.799999
      vertex 77.2 80.4 0.799999
    endloop
  endfacet
  facet normal 0 1 -0
    outer loop
      vertex 229.2 80.4 0.799999
      vertex 191.8 80.4 30
      vertex 229.2 80.4 30
    endloop
  endfacet
  facet normal 0 1 0
    outer loop
      vertex 191.8 80.4 30
      vertex 229.2 80.4 0.799999
      vertex 191.8 80.4 0.799999
    endloop
  endfacet
  facet normal 0 1 -0
    outer loop
      vertex 191 80.4 0.799999
      vertex 115.4 80.4 30
      vertex 191 80.4 30
    endloop
  endfacet
  facet normal 0 1 0
    outer loop
      vertex 115.4 80.4 30
      vertex 191 80.4 0.799999
      vertex 115.4 80.4 0.799999
    endloop
  endfacet
  facet normal -1 0 0
    outer loop
      vertex 191 80.4 0.799999
      vertex 191 119.4 30
      vertex 191 119.4 0.799999
    endloop
  endfacet
  facet normal -1 -0 0
    outer loop
      vertex 191 119.4 30
      vertex 191 80.4 0.799999
      vertex 191 80.4 30
    endloop
  endfacet
  facet normal 1 -0 0
    outer loop
      vertex 191.8 80.4 30
      vertex 191.8 159.2 0.799999
      vertex 191.8 159.2 30
    endloop
  endfacet
  facet normal 1 0 0
    outer loop
      vertex 191.8 159.2 0.799999
      vertex 191.8 80.4 30
      vertex 191.8 80.4 0.799999
    endloop
  endfacet
  facet normal 0 1 -0
    outer loop
      vertex 230 160 0
      vertex 0 160 30
      vertex 230 160 30
    endloop
  endfacet
  facet normal 0 1 0
    outer loop
      vertex 0 160 30
      vertex 230 160 0
      vertex 0 160 0
    endloop
  endfacet
  facet normal 0 1 -0
    outer loop
      vertex 76.4 120.2 0.799999
      vertex 39 120.2 30
      vertex 76.4 120.2 30
    endloop
  endfacet
  facet normal 0 1 0
    outer loop
      vertex 39 120.2 30
      vertex 76.4 120.2 0.799999
      vertex 39 120.2 0.799999
    endloop
  endfacet
  facet normal 0 1 -0
    outer loop
      vertex 38.2 120.2 0.799999
      vertex 0.799999 120.2 30
      vertex 38.2 120.2 30
    endloop
  endfacet
  facet normal 0 1 0
    outer loop
      vertex 0.799999 120.2 30
      vertex 38.2 120.2 0.799999
      vertex 0.799999 120.2 0.799999
    endloop
  endfacet
  facet normal 0 -1 0
    outer loop
      vertex 0.799999 119.4 0.799999
      vertex 38.2 119.4 30
      vertex 0.799999 119.4 30
    endloop
  endfacet
  facet normal 0 -1 -0
    outer loop
      vertex 38.2 119.4 30
      vertex 0.799999 119.4 0.799999
      vertex 38.2 119.4 0.799999
    endloop
  endfacet
  facet normal 0 -1 0
    outer loop
      vertex 39 119.4 0.799999
      vertex 76.4 119.4 30
      vertex 39 119.4 30
    endloop
  endfacet
  facet normal 0 -1 -0
    outer loop
      vertex 76.4 119.4 30
      vertex 39 119.4 0.799999
      vertex 76.4 119.4 0.799999
    endloop
  endfacet
  facet normal 0 -1 0
    outer loop
      vertex 77.2 119.4 0.799999
      vertex 114.6 119.4 30
      vertex 77.2 119.4 30
    endloop
  endfacet
  facet normal 0 -1 -0
    outer loop
      vertex 114.6 119.4 30
      vertex 77.2 119.4 0.799999
      vertex 114.6 119.4 0.799999
    endloop
  endfacet
  facet normal 0 -1 0
    outer loop
      vertex 115.4 119.4 0.799999
      vertex 191 119.4 30
      vertex 115.4 119.4 30
    endloop
  endfacet
  facet normal 0 -1 -0
    outer loop
      vertex 191 119.4 30
      vertex 115.4 119.4 0.799999
      vertex 191 119.4 0.799999
    endloop
  endfacet
  facet normal -1 0 0
    outer loop
      vertex 76.4 120.2 0.799999
      vertex 76.4 159.2 30
      vertex 76.4 159.2 0.799999
    endloop
  endfacet
  facet normal -1 -0 0
    outer loop
      vertex 76.4 159.2 30
      vertex 76.4 120.2 0.799999
      vertex 76.4 120.2 30
    endloop
  endfacet
  facet normal 1 -0 0
    outer loop
      vertex 77.2 120.2 30
      vertex 77.2 159.2 0.799999
      vertex 77.2 159.2 30
    endloop
  endfacet
  facet normal 1 0 0
    outer loop
      vertex 77.2 159.2 0.799999
      vertex 77.2 120.2 30
      vertex 77.2 120.2 0.799999
    endloop
  endfacet
  facet normal -1 0 0
    outer loop
      vertex 114.6 120.2 0.799999
      vertex 114.6 159.2 30
      vertex 114.6 159.2 0.799999
    endloop
  endfacet
  facet normal -1 -0 0
    outer loop
      vertex 114.6 159.2 30
      vertex 114.6 120.2 0.799999
      vertex 114.6 120.2 30
    endloop
  endfacet
  facet normal 1 -0 0
    outer loop
      vertex 115.4 120.2 30
      vertex 115.4 159.2 0.799999
      vertex 115.4 159.2 30
    endloop
  endfacet
  facet normal 1 0 0
    outer loop
      vertex 115.4 159.2 0.799999
      vertex 115.4 120.2 30
      vertex 115.4 120.2 0.799999
    endloop
  endfacet
  facet normal 0 1 -0
    outer loop
      vertex 191 120.2 0.799999
      vertex 115.4 120.2 30
      vertex 191 120.2 30
    endloop
  endfacet
  facet normal 0 1 0
    outer loop
      vertex 115.4 120.2 30
      vertex 191 120.2 0.799999
      vertex 115.4 120.2 0.799999
    endloop
  endfacet
  facet normal 0 1 -0
    outer loop
      vertex 114.6 120.2 0.799999
      vertex 77.2 120.2 30
      vertex 114.6 120.2 30
    endloop
  endfacet
  facet normal 0 1 0
    outer loop
      vertex 77.2 120.2 30
      vertex 114.6 120.2 0.799999
      vertex 77.2 120.2 0.799999
    endloop
  endfacet
  facet normal -1 0 0
    outer loop
      vertex 191 120.2 0.799999
      vertex 191 159.2 30
      vertex 191 159.2 0.799999
    endloop
  endfacet
  facet normal -1 -0 0
    outer loop
      vertex 191 159.2 30
      vertex 191 120.2 0.799999
      vertex 191 120.2 30
    endloop
  endfacet
  facet normal -0 0 1
    outer loop
      vertex 115.4 39.8 0.799999
      vertex 229.2 0.799999 0.799999
      vertex 229.2 39.8 0.799999
    endloop
  endfacet
  facet normal 0 0 1
    outer loop
      vertex 229.2 0.799999 0.799999
      vertex 115.4 39.8 0.799999
      vertex 115.4 0.799999 0.799999
    endloop
  endfacet
  facet normal -0 0 1
    outer loop
      vertex 0.799999 39.8 0.799999
      vertex 38.2 0.799999 0.799999
      vertex 38.2 39.8 0.799999
    endloop
  endfacet
  facet normal 0 0 1
    outer loop
      vertex 38.2 0.799999 0.799999
      vertex 0.799999 39.8 0.799999
      vertex 0.799999 0.799999 0.799999
    endloop
  endfacet
  facet normal -0 0 1
    outer loop
      vertex 39 39.8 0.799999
      vertex 76.4 0.799999 0.799999
      vertex 76.4 39.8 0.799999
    endloop
  endfacet
  facet normal 0 0 1
    outer loop
      vertex 76.4 0.799999 0.799999
      vertex 39 39.8 0.799999
      vertex 39 0.799999 0.799999
    endloop
  endfacet
  facet normal -0 0 1
    outer loop
      vertex 77.2 39.8 0.799999
      vertex 114.6 0.799999 0.799999
      vertex 114.6 39.8 0.799999
    endloop
  endfacet
  facet normal 0 0 1
    outer loop
      vertex 114.6 0.799999 0.799999
      vertex 77.2 39.8 0.799999
      vertex 77.2 0.799999 0.799999
    endloop
  endfacet
  facet normal -0 0 1
    outer loop
      vertex 191.8 159.2 0.799999
      vertex 229.2 80.4 0.799999
      vertex 229.2 159.2 0.799999
    endloop
  endfacet
  facet normal 0 0 1
    outer loop
      vertex 229.2 80.4 0.799999
      vertex 191.8 159.2 0.799999
      vertex 191.8 80.4 0.799999
    endloop
  endfacet
  facet normal -0 0 1
    outer loop
      vertex 115.4 79.6 0.799999
      vertex 229.2 40.6 0.799999
      vertex 229.2 79.6 0.799999
    endloop
  endfacet
  facet normal 0 0 1
    outer loop
      vertex 229.2 40.6 0.799999
      vertex 115.4 79.6 0.799999
      vertex 115.4 40.6 0.799999
    endloop
  endfacet
  facet normal -0 0 1
    outer loop
      vertex 0.799999 119.4 0.799999
      vertex 38.2 80.4 0.799999
      vertex 38.2 119.4 0.799999
    endloop
  endfacet
  facet normal 0 0 1
    outer loop
      vertex 38.2 80.4 0.799999
      vertex 0.799999 119.4 0.799999
      vertex 0.799999 80.4 0.799999
    endloop
  endfacet
  facet normal -0 0 1
    outer loop
      vertex 0.799999 79.6 0.799999
      vertex 38.2 40.6 0.799999
      vertex 38.2 79.6 0.799999
    endloop
  endfacet
  facet normal 0 0 1
    outer loop
      vertex 38.2 40.6 0.799999
      vertex 0.799999 79.6 0.799999
      vertex 0.799999 40.6 0.799999
    endloop
  endfacet
  facet normal -0 0 1
    outer loop
      vertex 0.799999 159.2 0.799999
      vertex 38.2 120.2 0.799999
      vertex 38.2 159.2 0.799999
    endloop
  endfacet
  facet normal 0 0 1
    outer loop
      vertex 38.2 120.2 0.799999
      vertex 0.799999 159.2 0.799999
      vertex 0.799999 120.2 0.799999
    endloop
  endfacet
  facet normal -0 0 1
    outer loop
      vertex 39 119.4 0.799999
      vertex 76.4 80.4 0.799999
      vertex 76.4 119.4 0.799999
    endloop
  endfacet
  facet normal 0 0 1
    outer loop
      vertex 76.4 80.4 0.799999
      vertex 39 119.4 0.799999
      vertex 39 80.4 0.799999
    endloop
  endfacet
  facet normal -0 0 1
    outer loop
      vertex 39 79.6 0.799999
      vertex 76.4 40.6 0.799999
      vertex 76.4 79.6 0.799999
    endloop
  endfacet
  facet normal 0 0 1
    outer loop
      vertex 76.4 40.6 0.799999
      vertex 39 79.6 0.799999
      vertex 39 40.6 0.799999
    endloop
  endfacet
  facet normal -0 0 1
    outer loop
      vertex 39 159.2 0.799999
      vertex 76.4 120.2 0.799999
      vertex 76.4 159.2 0.799999
    endloop
  endfacet
  facet normal 0 0 1
    outer loop
      vertex 76.4 120.2 0.799999
      vertex 39 159.2 0.799999
      vertex 39 120.2 0.799999
    endloop
  endfacet
  facet normal -0 0 1
    outer loop
      vertex 77.2 159.2 0.799999
      vertex 114.6 120.2 0.799999
      vertex 114.6 159.2 0.799999
    endloop
  endfacet
  facet normal 0 0 1
    outer loop
      vertex 114.6 120.2 0.799999
      vertex 77.2 159.2 0.799999
      vertex 77.2 120.2 0.799999
    endloop
  endfacet
  facet normal -0 0 1
    outer loop
      vertex 77.2 119.4 0.799999
      vertex 114.6 80.4 0.799999
      vertex 114.6 119.4 0.799999
    endloop
  endfacet
  facet normal 0 0 1
    outer loop
      vertex 114.6 80.4 0.799999
      vertex 77.2 119.4 0.799999
      vertex 77.2 80.4 0.799999
    endloop
  endfacet
  facet normal -0 0 1
    outer loop
      vertex 77.2 79.6 0.799999
      vertex 114.6 40.6 0.799999
      vertex 114.6 79.6 0.799999
    endloop
  endfacet
  facet normal 0 0 1
    outer loop
      vertex 114.6 40.6 0.799999
      vertex 77.2 79.6 0.799999
      vertex 77.2 40.6 0.799999
    endloop
  endfacet
  facet normal -0 0 1
    outer loop
      vertex 115.4 159.2 0.799999
      vertex 191 120.2 0.799999
      vertex 191 159.2 0.799999
    endloop
  endfacet
  facet normal 0 0 1
    outer loop
      vertex 191 120.2 0.799999
      vertex 115.4 159.2 0.799999
      vertex 115.4 120.2 0.799999
    endloop
  endfacet
  facet normal -0 0 1
    outer loop
      vertex 115.4 119.4 0.799999
      vertex 191 80.4 0.799999
      vertex 191 119.4 0.799999
    endloop
  endfacet
  facet normal 0 0 1
    outer loop
      vertex 191 80.4 0.799999
      vertex 115.4 119.4 0.799999
      vertex 115.4 80.4 0.799999
    endloop
  endfacet
  facet normal 1 -0 0
    outer loop
      vertex 0.799999 0.799999 30
      vertex 0.799999 39.8 0.799999
      vertex 0.799999 39.8 30
    endloop
  endfacet
  facet normal 1 0 0
    outer loop
      vertex 0.799999 39.8 0.799999
      vertex 0.799999 0.799999 30
      vertex 0.799999 0.799999 0.799999
    endloop
  endfacet
  facet normal 1 -0 0
    outer loop
      vertex 0.799999 80.4 30
      vertex 0.799999 119.4 0.799999
      vertex 0.799999 119.4 30
    endloop
  endfacet
  facet normal 1 0 0
    outer loop
      vertex 0.799999 119.4 0.799999
      vertex 0.799999 80.4 30
      vertex 0.799999 80.4 0.799999
    endloop
  endfacet
  facet normal 1 -0 0
    outer loop
      vertex 0.799999 40.6 30
      vertex 0.799999 79.6 0.799999
      vertex 0.799999 79.6 30
    endloop
  endfacet
  facet normal 1 0 0
    outer loop
      vertex 0.799999 79.6 0.799999
      vertex 0.799999 40.6 30
      vertex 0.799999 40.6 0.799999
    endloop
  endfacet
  facet normal 1 -0 0
    outer loop
      vertex 0.799999 120.2 30
      vertex 0.799999 159.2 0.799999
      vertex 0.799999 159.2 30
    endloop
  endfacet
  facet normal 1 0 0
    outer loop
      vertex 0.799999 159.2 0.799999
      vertex 0.799999 120.2 30
      vertex 0.799999 120.2 0.799999
    endloop
  endfacet
  facet normal 0 -1 0
    outer loop
      vertex 0.799999 159.2 0.799999
      vertex 38.2 159.2 30
      vertex 0.799999 159.2 30
    endloop
  endfacet
  facet normal 0 -1 -0
    outer loop
      vertex 38.2 159.2 30
      vertex 0.799999 159.2 0.799999
      vertex 38.2 159.2 0.799999
    endloop
  endfacet
  facet normal 0 -1 0
    outer loop
      vertex 39 159.2 0.799999
      vertex 76.4 159.2 30
      vertex 39 159.2 30
    endloop
  endfacet
  facet normal 0 -1 -0
    outer loop
      vertex 76.4 159.2 30
      vertex 39 159.2 0.799999
      vertex 76.4 159.2 0.799999
    endloop
  endfacet
  facet normal 0 -1 0
    outer loop
      vertex 77.2 159.2 0.799999
      vertex 114.6 159.2 30
      vertex 77.2 159.2 30
    endloop
  endfacet
  facet normal 0 -1 -0
    outer loop
      vertex 114.6 159.2 30
      vertex 77.2 159.2 0.799999
      vertex 114.6 159.2 0.799999
    endloop
  endfacet
  facet normal 0 -1 0
    outer loop
      vertex 115.4 159.2 0.799999
      vertex 191 159.2 30
      vertex 115.4 159.2 30
    endloop
  endfacet
  facet normal 0 -1 -0
    outer loop
      vertex 191 159.2 30
      vertex 115.4 159.2 0.799999
      vertex 191 159.2 0.799999
    endloop
  endfacet
  facet normal 0 -1 0
    outer loop
      vertex 191.8 159.2 0.799999
      vertex 229.2 159.2 30
      vertex 191.8 159.2 30
    endloop
  endfacet
  facet normal 0 -1 -0
    outer loop
      vertex 229.2 159.2 30
      vertex 191.8 159.2 0.799999
      vertex 229.2 159.2 0.799999
    endloop
  endfacet
endsolid OpenSCAD_Model
