solid OpenSCAD_Model
  facet normal 1 0 0
    outer loop
      vertex 93 11 81.5
      vertex 93 0 81.5
      vertex 93 11 9.5
    endloop
  endfacet
  facet normal 1 -0 0
    outer loop
      vertex 93 11 9.5
      vertex 93 20.5 0
      vertex 93 20.5 9.5
    endloop
  endfacet
  facet normal 1 0 0
    outer loop
      vertex 93 11 9.5
      vertex 93 0 0
      vertex 93 20.5 0
    endloop
  endfacet
  facet normal 1 0 0
    outer loop
      vertex 93 0 0
      vertex 93 11 9.5
      vertex 93 0 81.5
    endloop
  endfacet
  facet normal 0 0 1
    outer loop
      vertex 31.5 11 81.5
      vertex 1.5 9.5 81.5
      vertex 31.5 9.5 81.5
    endloop
  endfacet
  facet normal 0 0 1
    outer loop
      vertex 1.5 9.5 81.5
      vertex 0 11 81.5
      vertex 1.5 1.5 81.5
    endloop
  endfacet
  facet normal -0 0 1
    outer loop
      vertex 0 11 81.5
      vertex 1.5 9.5 81.5
      vertex 31.5 11 81.5
    endloop
  endfacet
  facet normal 0 0 1
    outer loop
      vertex 93 11 81.5
      vertex 91.5 9.5 81.5
      vertex 93 0 81.5
    endloop
  endfacet
  facet normal -0 0 1
    outer loop
      vertex 61.5 11 81.5
      vertex 91.5 9.5 81.5
      vertex 93 11 81.5
    endloop
  endfacet
  facet normal 0 0 1
    outer loop
      vertex 91.5 9.5 81.5
      vertex 61.5 11 81.5
      vertex 61.5 9.5 81.5
    endloop
  endfacet
  facet normal -0 0 1
    outer loop
      vertex 91.5 1.5 81.5
      vertex 93 0 81.5
      vertex 91.5 9.5 81.5
    endloop
  endfacet
  facet normal -0 0 1
    outer loop
      vertex 1.5 1.5 81.5
      vertex 93 0 81.5
      vertex 91.5 1.5 81.5
    endloop
  endfacet
  facet normal 0 0 1
    outer loop
      vertex 1.5 1.5 81.5
      vertex 0 0 81.5
      vertex 93 0 81.5
    endloop
  endfacet
  facet normal 0 0 1
    outer loop
      vertex 0 0 81.5
      vertex 1.5 1.5 81.5
      vertex 0 11 81.5
    endloop
  endfacet
  facet normal 0 0 -1
    outer loop
      vertex 61.5 0 0
      vertex 93 20.5 0
      vertex 93 0 0
    endloop
  endfacet
  facet normal -0 0 -1
    outer loop
      vertex 93 20.5 0
      vertex 61.5 0 0
      vertex 61.5 20.5 0
    endloop
  endfacet
  facet normal 0 0 -1
    outer loop
      vertex 0 0 0
      vertex 31.5 20.5 0
      vertex 31.5 0 0
    endloop
  endfacet
  facet normal -0 0 -1
    outer loop
      vertex 31.5 20.5 0
      vertex 0 0 0
      vertex 0 20.5 0
    endloop
  endfacet
  facet normal -1 0 0
    outer loop
      vertex 0 20.5 0
      vertex 0 11 9.5
      vertex 0 20.5 9.5
    endloop
  endfacet
  facet normal -1 0 0
    outer loop
      vertex 0 0 0
      vertex 0 11 9.5
      vertex 0 20.5 0
    endloop
  endfacet
  facet normal -1 0 0
    outer loop
      vertex 0 0 81.5
      vertex 0 11 9.5
      vertex 0 0 0
    endloop
  endfacet
  facet normal -1 0 0
    outer loop
      vertex 0 11 9.5
      vertex 0 0 81.5
      vertex 0 11 81.5
    endloop
  endfacet
  facet normal 0 1 0
    outer loop
      vertex 1.5 11 11
      vertex 31.5 11 81.5
      vertex 31.5 11 11
    endloop
  endfacet
  facet normal 0 1 0
    outer loop
      vertex 31.5 11 81.5
      vertex 1.5 11 11
      vertex 0 11 81.5
    endloop
  endfacet
  facet normal 0 1 0
    outer loop
      vertex 0 11 9.5
      vertex 1.5 11 11
      vertex 1.5 11 9.5
    endloop
  endfacet
  facet normal 0 1 0
    outer loop
      vertex 1.5 11 11
      vertex 0 11 9.5
      vertex 0 11 81.5
    endloop
  endfacet
  facet normal 0 1 0
    outer loop
      vertex 93 11 81.5
      vertex 91.5 11 11
      vertex 61.5 11 81.5
    endloop
  endfacet
  facet normal 0 1 -0
    outer loop
      vertex 93 11 9.5
      vertex 91.5 11 11
      vertex 93 11 81.5
    endloop
  endfacet
  facet normal 0 1 0
    outer loop
      vertex 91.5 11 11
      vertex 93 11 9.5
      vertex 91.5 11 9.5
    endloop
  endfacet
  facet normal 0 1 0
    outer loop
      vertex 61.5 11 81.5
      vertex 91.5 11 11
      vertex 61.5 11 11
    endloop
  endfacet
  facet normal 0 -1 0
    outer loop
      vertex 0 0 81.5
      vertex 31.5 0 9.5
      vertex 93 0 81.5
    endloop
  endfacet
  facet normal 0 -1 0
    outer loop
      vertex 0 0 0
      vertex 31.5 0 9.5
      vertex 0 0 81.5
    endloop
  endfacet
  facet normal 0 -1 -0
    outer loop
      vertex 31.5 0 9.5
      vertex 0 0 0
      vertex 31.5 0 0
    endloop
  endfacet
  facet normal 0 -1 0
    outer loop
      vertex 61.5 0 9.5
      vertex 93 0 81.5
      vertex 31.5 0 9.5
    endloop
  endfacet
  facet normal 0 -1 0
    outer loop
      vertex 93 0 0
      vertex 61.5 0 9.5
      vertex 61.5 0 0
    endloop
  endfacet
  facet normal 0 -1 0
    outer loop
      vertex 61.5 0 9.5
      vertex 93 0 0
      vertex 93 0 81.5
    endloop
  endfacet
  facet normal 0 0 1
    outer loop
      vertex 31.5 20.5 9.5
      vertex 1.5 19 9.5
      vertex 31.5 19 9.5
    endloop
  endfacet
  facet normal -0 0 1
    outer loop
      vertex 0 20.5 9.5
      vertex 1.5 19 9.5
      vertex 31.5 20.5 9.5
    endloop
  endfacet
  facet normal 0 0 1
    outer loop
      vertex 0 11 9.5
      vertex 1.5 19 9.5
      vertex 0 20.5 9.5
    endloop
  endfacet
  facet normal 0 0 1
    outer loop
      vertex 1.5 19 9.5
      vertex 0 11 9.5
      vertex 1.5 11 9.5
    endloop
  endfacet
  facet normal 0 0 1
    outer loop
      vertex 93 20.5 9.5
      vertex 91.5 19 9.5
      vertex 93 11 9.5
    endloop
  endfacet
  facet normal -0 0 1
    outer loop
      vertex 61.5 20.5 9.5
      vertex 91.5 19 9.5
      vertex 93 20.5 9.5
    endloop
  endfacet
  facet normal 0 0 1
    outer loop
      vertex 91.5 19 9.5
      vertex 61.5 20.5 9.5
      vertex 61.5 19 9.5
    endloop
  endfacet
  facet normal 0 0 1
    outer loop
      vertex 93 11 9.5
      vertex 91.5 19 9.5
      vertex 91.5 11 9.5
    endloop
  endfacet
  facet normal 0 1 -0
    outer loop
      vertex 31.5 20.5 0
      vertex 0 20.5 9.5
      vertex 31.5 20.5 9.5
    endloop
  endfacet
  facet normal 0 1 0
    outer loop
      vertex 0 20.5 9.5
      vertex 31.5 20.5 0
      vertex 0 20.5 0
    endloop
  endfacet
  facet normal 0 1 -0
    outer loop
      vertex 93 20.5 0
      vertex 61.5 20.5 9.5
      vertex 93 20.5 9.5
    endloop
  endfacet
  facet normal 0 1 0
    outer loop
      vertex 61.5 20.5 9.5
      vertex 93 20.5 0
      vertex 61.5 20.5 0
    endloop
  endfacet
  facet normal -1 0 0
    outer loop
      vertex 91.5 19 1.5
      vertex 91.5 11 9.5
      vertex 91.5 19 9.5
    endloop
  endfacet
  facet normal -1 0 0
    outer loop
      vertex 91.5 11 9.5
      vertex 91.5 9.5 11
      vertex 91.5 11 11
    endloop
  endfacet
  facet normal -1 0 0
    outer loop
      vertex 91.5 1.5 1.5
      vertex 91.5 11 9.5
      vertex 91.5 19 1.5
    endloop
  endfacet
  facet normal -1 -0 0
    outer loop
      vertex 91.5 11 9.5
      vertex 91.5 1.5 1.5
      vertex 91.5 9.5 11
    endloop
  endfacet
  facet normal -1 0 0
    outer loop
      vertex 91.5 1.5 81.5
      vertex 91.5 9.5 11
      vertex 91.5 1.5 1.5
    endloop
  endfacet
  facet normal -1 0 0
    outer loop
      vertex 91.5 9.5 11
      vertex 91.5 1.5 81.5
      vertex 91.5 9.5 81.5
    endloop
  endfacet
  facet normal -0 0 1
    outer loop
      vertex 61.5 19 1.5
      vertex 91.5 1.5 1.5
      vertex 91.5 19 1.5
    endloop
  endfacet
  facet normal 0 0 1
    outer loop
      vertex 91.5 1.5 1.5
      vertex 61.5 19 1.5
      vertex 61.5 1.5 1.5
    endloop
  endfacet
  facet normal -0 0 1
    outer loop
      vertex 1.5 19 1.5
      vertex 31.5 1.5 1.5
      vertex 31.5 19 1.5
    endloop
  endfacet
  facet normal 0 0 1
    outer loop
      vertex 31.5 1.5 1.5
      vertex 1.5 19 1.5
      vertex 1.5 1.5 1.5
    endloop
  endfacet
  facet normal 1 0 0
    outer loop
      vertex 1.5 9.5 81.5
      vertex 1.5 1.5 81.5
      vertex 1.5 9.5 11
    endloop
  endfacet
  facet normal 1 0 0
    outer loop
      vertex 1.5 11 11
      vertex 1.5 9.5 11
      vertex 1.5 11 9.5
    endloop
  endfacet
  facet normal 1 -0 0
    outer loop
      vertex 1.5 11 9.5
      vertex 1.5 19 1.5
      vertex 1.5 19 9.5
    endloop
  endfacet
  facet normal 1 0 0
    outer loop
      vertex 1.5 1.5 1.5
      vertex 1.5 11 9.5
      vertex 1.5 9.5 11
    endloop
  endfacet
  facet normal 1 0 0
    outer loop
      vertex 1.5 11 9.5
      vertex 1.5 1.5 1.5
      vertex 1.5 19 1.5
    endloop
  endfacet
  facet normal 1 0 0
    outer loop
      vertex 1.5 1.5 1.5
      vertex 1.5 9.5 11
      vertex 1.5 1.5 81.5
    endloop
  endfacet
  facet normal 0 -1 0
    outer loop
      vertex 1.5 9.5 11
      vertex 31.5 9.5 81.5
      vertex 1.5 9.5 81.5
    endloop
  endfacet
  facet normal 0 -1 -0
    outer loop
      vertex 31.5 9.5 81.5
      vertex 1.5 9.5 11
      vertex 31.5 9.5 11
    endloop
  endfacet
  facet normal 0 -1 0
    outer loop
      vertex 61.5 9.5 11
      vertex 91.5 9.5 81.5
      vertex 61.5 9.5 81.5
    endloop
  endfacet
  facet normal 0 -1 -0
    outer loop
      vertex 91.5 9.5 81.5
      vertex 61.5 9.5 11
      vertex 91.5 9.5 11
    endloop
  endfacet
  facet normal 0 1 0
    outer loop
      vertex 91.5 1.5 81.5
      vertex 61.5 1.5 9.5
      vertex 1.5 1.5 81.5
    endloop
  endfacet
  facet normal 0 1 -0
    outer loop
      vertex 91.5 1.5 1.5
      vertex 61.5 1.5 9.5
      vertex 91.5 1.5 81.5
    endloop
  endfacet
  facet normal 0 1 0
    outer loop
      vertex 61.5 1.5 9.5
      vertex 91.5 1.5 1.5
      vertex 61.5 1.5 1.5
    endloop
  endfacet
  facet normal 0 1 -0
    outer loop
      vertex 31.5 1.5 9.5
      vertex 1.5 1.5 81.5
      vertex 61.5 1.5 9.5
    endloop
  endfacet
  facet normal 0 1 0
    outer loop
      vertex 1.5 1.5 1.5
      vertex 31.5 1.5 9.5
      vertex 31.5 1.5 1.5
    endloop
  endfacet
  facet normal 0 1 0
    outer loop
      vertex 31.5 1.5 9.5
      vertex 1.5 1.5 1.5
      vertex 1.5 1.5 81.5
    endloop
  endfacet
  facet normal 0 0 -1
    outer loop
      vertex 1.5 9.5 11
      vertex 31.5 11 11
      vertex 31.5 9.5 11
    endloop
  endfacet
  facet normal -0 0 -1
    outer loop
      vertex 31.5 11 11
      vertex 1.5 9.5 11
      vertex 1.5 11 11
    endloop
  endfacet
  facet normal 0 0 -1
    outer loop
      vertex 61.5 9.5 11
      vertex 91.5 11 11
      vertex 91.5 9.5 11
    endloop
  endfacet
  facet normal -0 0 -1
    outer loop
      vertex 91.5 11 11
      vertex 61.5 9.5 11
      vertex 61.5 11 11
    endloop
  endfacet
  facet normal 0 -1 0
    outer loop
      vertex 61.5 19 1.5
      vertex 91.5 19 9.5
      vertex 61.5 19 9.5
    endloop
  endfacet
  facet normal 0 -1 -0
    outer loop
      vertex 91.5 19 9.5
      vertex 61.5 19 1.5
      vertex 91.5 19 1.5
    endloop
  endfacet
  facet normal 0 -1 0
    outer loop
      vertex 1.5 19 1.5
      vertex 31.5 19 9.5
      vertex 1.5 19 9.5
    endloop
  endfacet
  facet normal 0 -1 -0
    outer loop
      vertex 31.5 19 9.5
      vertex 1.5 19 1.5
      vertex 31.5 19 1.5
    endloop
  endfacet
  facet normal -1 0 0
    outer loop
      vertex 61.5 20.5 0
      vertex 61.5 19 1.5
      vertex 61.5 20.5 9.5
    endloop
  endfacet
  facet normal -1 0 0
    outer loop
      vertex 61.5 20.5 0
      vertex 61.5 1.5 1.5
      vertex 61.5 19 1.5
    endloop
  endfacet
  facet normal -1 0 0
    outer loop
      vertex 61.5 0 0
      vertex 61.5 1.5 1.5
      vertex 61.5 20.5 0
    endloop
  endfacet
  facet normal -1 0 0
    outer loop
      vertex 61.5 0 9.5
      vertex 61.5 1.5 1.5
      vertex 61.5 0 0
    endloop
  endfacet
  facet normal -1 0 0
    outer loop
      vertex 61.5 1.5 1.5
      vertex 61.5 0 9.5
      vertex 61.5 1.5 9.5
    endloop
  endfacet
  facet normal -1 -0 0
    outer loop
      vertex 61.5 20.5 9.5
      vertex 61.5 19 1.5
      vertex 61.5 19 9.5
    endloop
  endfacet
  facet normal -1 0 0
    outer loop
      vertex 61.5 9.5 11
      vertex 61.5 11 81.5
      vertex 61.5 11 11
    endloop
  endfacet
  facet normal -1 -0 0
    outer loop
      vertex 61.5 11 81.5
      vertex 61.5 9.5 11
      vertex 61.5 9.5 81.5
    endloop
  endfacet
  facet normal 1 0 0
    outer loop
      vertex 31.5 1.5 9.5
      vertex 31.5 0 9.5
      vertex 31.5 1.5 1.5
    endloop
  endfacet
  facet normal 1 0 0
    outer loop
      vertex 31.5 19 1.5
      vertex 31.5 20.5 9.5
      vertex 31.5 19 9.5
    endloop
  endfacet
  facet normal 1 0 0
    outer loop
      vertex 31.5 20.5 9.5
      vertex 31.5 19 1.5
      vertex 31.5 20.5 0
    endloop
  endfacet
  facet normal 1 -0 0
    outer loop
      vertex 31.5 1.5 1.5
      vertex 31.5 20.5 0
      vertex 31.5 19 1.5
    endloop
  endfacet
  facet normal 1 0 0
    outer loop
      vertex 31.5 1.5 1.5
      vertex 31.5 0 0
      vertex 31.5 20.5 0
    endloop
  endfacet
  facet normal 1 0 0
    outer loop
      vertex 31.5 0 0
      vertex 31.5 1.5 1.5
      vertex 31.5 0 9.5
    endloop
  endfacet
  facet normal 1 -0 0
    outer loop
      vertex 31.5 9.5 81.5
      vertex 31.5 11 11
      vertex 31.5 11 81.5
    endloop
  endfacet
  facet normal 1 0 0
    outer loop
      vertex 31.5 11 11
      vertex 31.5 9.5 81.5
      vertex 31.5 9.5 11
    endloop
  endfacet
  facet normal 0 0 -1
    outer loop
      vertex 31.5 0 9.5
      vertex 61.5 1.5 9.5
      vertex 61.5 0 9.5
    endloop
  endfacet
  facet normal -0 0 -1
    outer loop
      vertex 61.5 1.5 9.5
      vertex 31.5 0 9.5
      vertex 31.5 1.5 9.5
    endloop
  endfacet
endsolid OpenSCAD_Model
